<svg width="200" height="200" viewBox="0 0 200 200" fill="none" xmlns="http://www.w3.org/2000/svg">
<g clip-path="url(#clip0_1_7)">
<path d="M108.297 14.2969C108.266 14.2926 108.234 14.2903 108.203 14.2863C108.193 14.2856 108.184 14.2844 108.174 14.2828C106.627 14.0863 105.06 13.9856 103.512 13.9856H92.4103C90.1564 13.9856 87.9353 14.2567 85.7779 14.7844L71.6138 1.16796C69.9474 -0.433999 67.297 -0.382046 65.695 1.28475C64.0927 2.95116 64.145 5.60156 65.8118 7.20352L77.4091 18.3524C75.7431 19.4145 74.1982 20.6559 72.79 22.0547L63.6599 13.2789C61.9931 11.6766 59.3431 11.7293 57.7407 13.3957C56.1388 15.0621 56.1911 17.7125 57.8575 19.3145L67.7587 28.8321C65.6384 32.8262 64.5263 37.2676 64.5263 41.8653V60.5064V82.6767V162.173V195.813C64.5263 197.209 65.2224 198.513 66.3822 199.291C67.0818 199.759 67.8947 199.999 68.713 199.999C69.2509 199.999 69.7919 199.895 70.3037 199.685C81.781 194.967 89.4928 182.391 89.4928 168.389C89.4928 166.396 89.3365 164.419 89.0322 162.48C98.5408 158.712 106.747 152.417 112.92 144.099C119.993 134.569 123.731 123.24 123.731 111.339C123.731 98.9928 119.555 86.9709 111.943 77.308V75.9783C122.164 74.2619 132.549 66.8138 134.949 57.1524H139.242C141.554 57.1524 143.428 55.2782 143.428 52.9661V49.4122C143.428 30.4926 125.188 16.4531 108.297 14.2969ZM72.899 188.255V164.856C75.3966 163.6 77.7591 162.062 79.9724 160.255C80.0298 160.454 80.0951 160.65 80.1482 160.851C80.7939 163.276 81.1209 165.812 81.1209 168.39C81.1205 176.344 77.9798 183.639 72.899 188.255ZM115.36 111.34C115.36 130.341 104.035 147.142 86.7904 154.357C86.69 154.109 86.5881 153.862 86.4822 153.617C93.2463 145.083 96.9443 134.121 96.9443 122.425C96.9443 115.145 95.5232 108.177 92.7205 101.714C91.8002 99.5928 89.3346 98.6189 87.2142 99.5393C85.0931 100.459 84.1193 102.924 85.0392 105.045C87.383 110.451 88.5717 116.298 88.5717 122.425C88.5717 132.911 84.8744 143.03 78.4279 150.187C76.7205 152.084 74.872 153.732 72.8982 155.122V82.6775V60.5071V41.8661C72.8982 37.7856 74.1423 33.8821 76.4978 30.5743C78.8705 27.2379 82.1556 24.77 86.0025 23.4352C88.051 22.7207 90.2064 22.3586 92.4103 22.3586H103.512C103.531 22.3586 103.551 22.3594 103.571 22.3594V52.9681V68.7806C102.943 68.2654 102.308 67.7595 101.657 67.272C99.8072 65.8853 97.1834 66.2607 95.7967 68.1107C94.4099 69.9607 94.785 72.5845 96.6346 73.9712C99.5545 76.1603 102.215 78.6837 104.543 81.4716C111.519 89.8263 115.36 100.434 115.36 111.34ZM111.944 67.4388V57.154H126.087C123.773 62.0036 117.81 66.0243 111.944 67.4388ZM131.28 48.7817H111.944V23.5809C123.623 26.9082 134.67 36.7754 135.046 48.7817H131.28Z" fill="#81D8F7"/>
<path d="M86.4728 91.2205C85.9248 90.5287 85.3517 89.8467 84.7685 89.1935C83.2283 87.4693 80.5822 87.3197 78.8576 88.8599C77.1334 90.4006 76.9838 93.0467 78.5244 94.7709C78.9966 95.2998 79.4611 95.8525 79.9052 96.4139C80.7314 97.4588 81.9552 98.0033 83.192 98.0033C84.1013 98.0033 85.017 97.7084 85.7857 97.1002C87.5994 95.6662 87.9064 93.0338 86.4728 91.2205Z" fill="#81D8F7"/>
<path d="M94.2568 33.4102C91.9447 33.4102 90.0705 35.2848 90.0705 37.5966V40.3134C90.0705 42.6255 91.9447 44.4997 94.2568 44.4997C96.5689 44.4997 98.4432 42.6255 98.4432 40.3134V37.5966C98.4432 35.2848 96.5689 33.4102 94.2568 33.4102Z" fill="#81D8F7"/>
</g>
<defs>
<clipPath id="clip0_1_7">
<rect width="200" height="200" fill="white"/>
</clipPath>
</defs>
</svg>
